Motion_kv09_l
version=1
nRows=8
nColumns=43
inDegrees=yes
endheader
time	pelvis_tilt	pelvis_list	pelvis_rotation	pelvis_tx	pelvis_ty	pelvis_tz	hip_flexion_r	hip_adduction_r	hip_rotation_r	knee_angle_r	ankle_angle_r	subtalar_angle_r	mtp_angle_r	hip_flexion_l	hip_adduction_l	hip_rotation_l	knee_angle_l	ankle_angle_l	subtalar_angle_l	mtp_angle_l	lumbar_extension	lumbar_bending	lumbar_rotation	neck_flexion	neck_lateral_bending	neck_rotation	arm_flex_r	arm_add_r	arm_rot_r	elbow_flex_r	pro_sup_r	wrist_flex_r	wrist_dev_r	hand_finger_flex_r	arm_flex_l	arm_add_l	arm_rot_l	elbow_flex_l	pro_sup_l	wrist_flex_l	wrist_dev_l	hand_finger_flex_l
      1.71000000	      0.62824302	      4.35576170	     85.49230204	      0.00401692	      1.06513455	      0.52586712	     23.52673338	     -3.84805200	     -9.33028892	    -23.83017609	    -20.49182829	     -0.58266609	     -5.80770090	     20.90421723	     -8.40861381	     -7.76867339	    -19.51899073	    -29.16869483	      8.49178060	     11.35186116	    -29.11827434	     -3.02515644	      2.01211983	    -22.25851425	      2.01106687	     -2.31531533	    -71.86179246	    -24.29434862	    -30.04613615	    133.90454589	    147.70350702	     36.13547871	      5.46678340	      4.47034219	    -58.03089730	    -22.63001013	    -18.29683515	    103.92253160	    146.05877893	    -26.76730611	     -1.10874164	    -25.66724886
      1.71250000	      0.66278226	      4.36150671	     85.44485385	      0.00413202	      1.05689494	      0.52220012	     24.06926313	     -3.73694506	     -8.74677484	    -25.10644129	    -20.28341063	     -0.42435271	     -5.87877327	     21.39074625	     -8.42349162	     -7.19166836	    -20.76747476	    -28.87653446	      8.16412061	     11.30495289	    -29.09711206	     -3.00384011	      2.08895718	    -21.82254564	      2.01569822	     -2.40916493	    -71.40771737	    -24.08774108	    -29.91377849	    133.62385243	    147.93935474	     36.42829621	      5.62789501	      4.43914137	    -57.74821048	    -22.30895057	    -18.33629638	    103.74123233	    146.08568349	    -27.06119276	     -1.20869415	    -25.58748370
      1.71500000	      0.59645090	      3.80897542	     85.47990228	      0.00399588	      1.04749356	      0.51882799	     25.37705796	     -3.71894356	     -8.11713654	    -26.60548576	    -20.17454525	     -0.21978240	     -6.22208253	     22.64997850	     -8.31321010	     -6.43317085	    -22.18804635	    -28.85433910	      7.56187575	     10.97947009	    -28.42004431	     -2.97605694	      2.06757485	    -21.82199864	      1.90741460	     -2.45898912	    -70.89289179	    -23.89954640	    -29.75443132	    133.37554640	    148.28516954	     37.12898605	      5.79099045	      4.38722512	    -57.48191561	    -22.00879272	    -18.32122561	    103.43615989	    146.20605811	    -27.70192927	     -1.53366001	    -25.40132975
      1.71750000	      0.69946050	      4.02325973	     85.48437474	      0.00418800	      1.03961273	      0.51523732	     25.64615449	     -3.52352961	     -7.47348168	    -27.75107060	    -20.17387470	      0.02355413	     -6.30872020	     22.92271796	     -8.37240442	     -5.85382126	    -23.37442297	    -28.92837774	      7.44673912	     10.89748522	    -28.65309266	     -2.90461190	      2.14372189	    -21.46331828	      1.94045111	     -2.56192540	    -70.36917875	    -23.75759799	    -29.60634897	    133.05227685	    148.41885090	     37.25135483	      5.86106516	      4.35577837	    -57.11634799	    -21.72826380	    -18.37859000	    103.31674812	    146.19517756	    -27.87269006	     -1.54544549	    -25.37585438
      1.72000000	      0.65476550	      3.41514071	     85.54135723	      0.00387495	      1.03004160	      0.51196443	     26.98229052	     -3.46790811	     -6.89839240	    -29.13556075	    -20.05680864	      0.19420538	     -6.92397837	     24.28641204	     -8.23169646	     -5.09251693	    -24.82984758	    -28.92520493	      6.76319644	     10.42664119	    -27.95852872	     -2.82075702	      2.06934426	    -21.32481270	      1.77087036	     -2.55506520	    -69.72699662	    -23.66539285	    -29.45971721	    132.76386894	    148.75579233	     37.96169896	      5.97198172	      4.31716516	    -56.71436275	    -21.35938562	    -18.34553526	    102.83871587	    146.33734618	    -28.57848097	     -1.89794798	    -25.17085938
      1.72250000	      0.76116079	      3.65447919	     85.56359733	      0.00397390	      1.02215008	      0.50851827	     27.20010943	     -3.24989852	     -6.25530014	    -30.15170533	    -20.12029686	      0.44800541	     -7.04443610	     24.56490661	     -8.26583727	     -4.56768852	    -25.99826752	    -29.10641465	      6.71025221	     10.34975383	    -28.26310967	     -2.72650198	      2.13049839	    -20.92237778	      1.74632124	     -2.64324082	    -69.10509416	    -23.56755862	    -29.29789844	    132.41639602	    148.84586337	     38.00425004	      5.99025217	      4.27026213	    -56.24285384	    -21.07267479	    -18.38966164	    102.68568451	    146.30112753	    -28.70340287	     -1.87656935	    -25.12784491
      1.72500000	      0.83186033	      3.44215537	     85.58144705	      0.00378173	      1.01331152	      0.50529909	     28.00241397	     -3.06926355	     -5.76160048	    -31.27268633	    -20.08199042	      0.66151605	     -7.37908748	     25.42737411	     -8.23704029	     -4.01209251	    -27.29407612	    -29.13432924	      6.27292059	     10.26771105	    -28.09228233	     -2.58311798	      2.12118124	    -20.43442424	      1.58583339	     -2.64667564	    -68.42258074	    -23.58145863	    -29.15867926	    132.10167687	    149.02667309	     38.32053214	      6.05936605	      4.28597331	    -55.70540518	    -20.64775749	    -18.42699458	    102.25142492	    146.37712925	    -29.20858894	     -2.09754000	    -25.03745522
      1.72750000	      0.87751645	      3.75075504	     85.63073576	      0.00374470	      1.00561918	      0.50151947	     28.08676251	     -2.96648043	     -5.41979100	    -32.10061205	    -20.18584593	      0.79790618	     -7.40099795	     25.59129343	     -8.20791353	     -3.78501709	    -28.36314111	    -29.32595954	      6.31766994	     10.28030693	    -28.37815070	     -2.53833398	      2.13023217	    -20.40940310	      1.53027883	     -2.66511205	    -67.69411143	    -23.44551327	    -29.00595480	    131.62798672	    149.07267681	     38.27179746	      6.06014426	      4.24730097	    -55.12830647	    -20.47115425	    -18.35366333	    101.93749494	    146.35146374	    -29.17061625	     -2.06101891	    -25.00613158
